<svg width="22" height="20" viewBox="0 0 22 20" fill="none" xmlns="http://www.w3.org/2000/svg">
<g id="Group">
<g id="Group_2">
<path id="Vector" d="M9.40616 11.9566L0.439171 6.78263C-0.208179 6.39759 -0.136251 5.74785 0.630978 5.31468L9.1664 0.35734C9.90965 -0.0758258 11.0605 -0.123955 11.7078 0.261081L20.6748 5.45907C21.3222 5.8441 21.2503 6.49385 20.483 6.92702L11.9476 11.8603C11.2044 12.2935 10.0535 12.3416 9.40616 11.9566Z" fill="#7B68EE"/>
</g>
<path id="Vector_2" d="M12.3789 5.21817L10.341 4.20745C9.86147 3.9668 9.31003 4.32777 9.31003 4.8572V6.9027C9.31003 7.43212 9.86147 7.79309 10.341 7.55245L12.3789 6.54173C12.9064 6.25295 12.9064 5.48288 12.3789 5.21817Z" fill="#F7F7F7"/>
<g id="Group_3">
<path id="Vector_3" d="M0.344116 12.1491C0.152309 12.1491 0.00845337 12.0048 0.00845337 11.8122V6.27734C0.00845337 6.08482 0.152309 5.94043 0.344116 5.94043C0.535923 5.94043 0.679779 6.08482 0.679779 6.27734V11.8122C0.703755 12.0048 0.535923 12.1491 0.344116 12.1491Z" fill="#7B68EE"/>
</g>
<g id="Group_4">
<path id="Vector_4" d="M17.9419 16.0474L12.0439 19.4645C11.7082 19.6571 11.4445 19.4645 11.4445 19.0073V14.8922C11.4445 14.435 11.7082 13.9056 12.0439 13.7131L17.918 10.2959C18.2536 10.1034 18.5174 10.2959 18.5174 10.7531V14.8682C18.5413 15.3495 18.2776 15.8548 17.9419 16.0474Z" fill="white"/>
</g>
<path id="Vector_5" d="M15.0167 13.8094L13.2904 14.7961C13.1945 14.8442 13.1226 14.7961 13.1226 14.6517C13.1226 14.5313 13.1945 14.3629 13.2904 14.3148L15.0167 13.3281C15.1126 13.28 15.1845 13.3281 15.1845 13.4725C15.2085 13.5928 15.1126 13.7372 15.0167 13.8094Z" fill="#7B68EE"/>
<path id="Vector_6" d="M15.6398 14.7482L13.3141 16.1199C13.2182 16.168 13.1463 16.1199 13.1463 15.9755C13.1463 15.8552 13.2182 15.6868 13.3141 15.6386L15.6637 14.291C15.7596 14.2429 15.8316 14.291 15.8316 14.4354C15.8316 14.5557 15.7357 14.7001 15.6398 14.7482Z" fill="#7B68EE"/>
<path id="Vector_7" d="M13.9854 17.034L13.3141 17.419C13.2182 17.4672 13.1463 17.419 13.1463 17.2747C13.1463 17.1543 13.2182 16.9859 13.3141 16.9378L13.9854 16.5527C14.0813 16.5046 14.1533 16.5527 14.1533 16.6971C14.1533 16.8174 14.0813 16.9859 13.9854 17.034Z" fill="#7B68EE"/>
<g id="Group_5">
<path id="Vector_8" d="M9.07129 19.4649L3.17322 16.0477C2.83756 15.8552 2.57382 15.3258 2.57382 14.8685V10.7775C2.57382 10.3203 2.83756 10.1278 3.17322 10.3203L9.04732 13.7375C9.38298 13.93 9.64671 14.4594 9.64671 14.9167V19.0077C9.67069 19.4649 9.40696 19.6574 9.07129 19.4649Z" fill="white"/>
</g>
<path id="Vector_9" d="M6.14605 13.8336L4.41978 12.847C4.32388 12.7988 4.25195 12.6304 4.25195 12.51C4.25195 12.3897 4.32388 12.3175 4.41978 12.3657L6.14605 13.3523C6.24195 13.4004 6.31388 13.5689 6.31388 13.6892C6.33786 13.8336 6.24195 13.8817 6.14605 13.8336Z" fill="#7B68EE"/>
<path id="Vector_10" d="M6.76942 15.5183L4.41978 14.1707C4.32388 14.1226 4.25195 13.9541 4.25195 13.8338C4.25195 13.7135 4.32388 13.6413 4.41978 13.6894L6.76942 15.037C6.86533 15.0852 6.93726 15.2536 6.93726 15.3739C6.96123 15.5183 6.86533 15.5664 6.76942 15.5183Z" fill="#7B68EE"/>
<path id="Vector_11" d="M5.11479 15.855L4.44347 15.47C4.34756 15.4219 4.27563 15.2534 4.27563 15.1331C4.27563 15.0128 4.34756 14.9406 4.44347 14.9887L5.11479 15.3737C5.2107 15.4219 5.28262 15.5903 5.28262 15.7107C5.28262 15.855 5.2107 15.9272 5.11479 15.855Z" fill="#7B68EE"/>
</g>
</svg>
