<svg width="12" height="13" viewBox="0 0 12 13" fill="none" xmlns="http://www.w3.org/2000/svg">
<g id="arrow-down">
<path id="Vector" d="M10.0153 5.30434L6.26531 9.05434C6.23048 9.08921 6.18912 9.11687 6.1436 9.13574C6.09807 9.15461 6.04928 9.16432 5.99999 9.16432C5.95071 9.16432 5.90192 9.15461 5.85639 9.13574C5.81087 9.11687 5.76951 9.08921 5.73468 9.05434L1.98468 5.30434C1.91432 5.23397 1.87479 5.13854 1.87479 5.03903C1.87479 4.93952 1.91432 4.84408 1.98468 4.77371C2.05505 4.70335 2.15048 4.66382 2.24999 4.66382C2.34951 4.66382 2.44494 4.70335 2.51531 4.77371L5.99999 8.25887L9.48468 4.77371C9.51952 4.73887 9.56089 4.71124 9.60641 4.69238C9.65193 4.67352 9.70072 4.66382 9.75 4.66382C9.79927 4.66382 9.84806 4.67352 9.89358 4.69238C9.9391 4.71124 9.98047 4.73887 10.0153 4.77371C10.0501 4.80856 10.0778 4.84992 10.0966 4.89544C10.1155 4.94096 10.1252 4.98975 10.1252 5.03903C10.1252 5.0883 10.1155 5.13709 10.0966 5.18261C10.0778 5.22814 10.0501 5.2695 10.0153 5.30434Z" fill="#C7C7C7"/>
</g>
</svg>
