<svg width="16" height="17" viewBox="0 0 16 17" fill="none" xmlns="http://www.w3.org/2000/svg">
<g id="vuesax/outline/add">
<g id="add">
<path id="Vector" d="M11.7306 12.5416L3.53783 4.34882C3.25791 4.0689 3.19149 3.67106 3.39131 3.47124C3.59113 3.27142 3.98896 3.33784 4.26888 3.61776L12.4617 11.8105C12.7416 12.0905 12.808 12.4883 12.6082 12.6881C12.4084 12.8879 12.0105 12.8215 11.7306 12.5416Z" fill="#74777C"/>
<path id="Vector_2" d="M3.39181 12.6881C3.19199 12.4883 3.25841 12.0905 3.53833 11.8105L11.7311 3.61776C12.011 3.33784 12.4089 3.27142 12.6087 3.47124C12.8085 3.67106 12.7421 4.0689 12.4622 4.34882L4.26939 12.5416C3.98947 12.8215 3.59164 12.8879 3.39181 12.6881Z" fill="#74777C"/>
</g>
</g>
</svg>
