<svg width="17" height="16" viewBox="0 0 17 16" fill="none" xmlns="http://www.w3.org/2000/svg">
<g id="vuesax/outline/copy">
<g id="copy">
<path id="Vector" d="M7.90016 15.1666H5.10016C2.4935 15.1666 1.3335 14.0066 1.3335 11.3999V8.59992C1.3335 5.99325 2.4935 4.83325 5.10016 4.83325H7.90016C10.5068 4.83325 11.6668 5.99325 11.6668 8.59992V11.3999C11.6668 14.0066 10.5068 15.1666 7.90016 15.1666ZM5.10016 5.83325C3.0335 5.83325 2.3335 6.53325 2.3335 8.59992V11.3999C2.3335 13.4666 3.0335 14.1666 5.10016 14.1666H7.90016C9.96683 14.1666 10.6668 13.4666 10.6668 11.3999V8.59992C10.6668 6.53325 9.96683 5.83325 7.90016 5.83325H5.10016Z" fill="#13191B"/>
<path id="Vector_2" d="M11.9002 11.1666H11.1668C10.8935 11.1666 10.6668 10.9399 10.6668 10.6666V8.59992C10.6668 6.53325 9.96683 5.83325 7.90016 5.83325H5.8335C5.56016 5.83325 5.3335 5.60659 5.3335 5.33325V4.59992C5.3335 1.99325 6.4935 0.833252 9.10016 0.833252H11.9002C14.5068 0.833252 15.6668 1.99325 15.6668 4.59992V7.39992C15.6668 10.0066 14.5068 11.1666 11.9002 11.1666ZM11.6668 10.1666H11.9002C13.9668 10.1666 14.6668 9.46659 14.6668 7.39992V4.59992C14.6668 2.53325 13.9668 1.83325 11.9002 1.83325H9.10016C7.0335 1.83325 6.3335 2.53325 6.3335 4.59992V4.83325H7.90016C10.5068 4.83325 11.6668 5.99325 11.6668 8.59992V10.1666Z" fill="#13191B"/>
</g>
</g>
</svg>
