<svg width="16" height="16" viewBox="0 0 16 16" fill="none" xmlns="http://www.w3.org/2000/svg">
<g id="vuesax/outline/element-3">
<g id="element-3">
<path id="Vector" d="M13.18 7.50016H10.4867C9.14667 7.50016 8.5 6.90683 8.5 5.68016V2.6535C8.5 1.42683 9.15333 0.833496 10.4867 0.833496H13.18C14.52 0.833496 15.1667 1.42683 15.1667 2.6535V5.6735C15.1667 6.90683 14.5133 7.50016 13.18 7.50016ZM10.4867 1.8335C9.59333 1.8335 9.5 2.08683 9.5 2.6535V5.6735C9.5 6.24683 9.59333 6.4935 10.4867 6.4935H13.18C14.0733 6.4935 14.1667 6.24016 14.1667 5.6735V2.6535C14.1667 2.08016 14.0733 1.8335 13.18 1.8335H10.4867Z" fill="white"/>
<path id="Vector_2" d="M13.18 15.1667H10.4867C9.14667 15.1667 8.5 14.5133 8.5 13.18V10.4867C8.5 9.14667 9.15333 8.5 10.4867 8.5H13.18C14.52 8.5 15.1667 9.15333 15.1667 10.4867V13.18C15.1667 14.5133 14.5133 15.1667 13.18 15.1667ZM10.4867 9.5C9.7 9.5 9.5 9.7 9.5 10.4867V13.18C9.5 13.9667 9.7 14.1667 10.4867 14.1667H13.18C13.9667 14.1667 14.1667 13.9667 14.1667 13.18V10.4867C14.1667 9.7 13.9667 9.5 13.18 9.5H10.4867Z" fill="white"/>
<path id="Vector_3" d="M5.51334 7.50016H2.82001C1.48001 7.50016 0.833344 6.90683 0.833344 5.68016V2.6535C0.833344 1.42683 1.48668 0.833496 2.82001 0.833496H5.51334C6.85334 0.833496 7.50001 1.42683 7.50001 2.6535V5.6735C7.50001 6.90683 6.84668 7.50016 5.51334 7.50016ZM2.82001 1.8335C1.92668 1.8335 1.83334 2.08683 1.83334 2.6535V5.6735C1.83334 6.24683 1.92668 6.4935 2.82001 6.4935H5.51334C6.40668 6.4935 6.50001 6.24016 6.50001 5.6735V2.6535C6.50001 2.08016 6.40668 1.8335 5.51334 1.8335H2.82001Z" fill="white"/>
<path id="Vector_4" d="M5.51334 15.1667H2.82001C1.48001 15.1667 0.833344 14.5133 0.833344 13.18V10.4867C0.833344 9.14667 1.48668 8.5 2.82001 8.5H5.51334C6.85334 8.5 7.50001 9.15333 7.50001 10.4867V13.18C7.50001 14.5133 6.84668 15.1667 5.51334 15.1667ZM2.82001 9.5C2.03334 9.5 1.83334 9.7 1.83334 10.4867V13.18C1.83334 13.9667 2.03334 14.1667 2.82001 14.1667H5.51334C6.30001 14.1667 6.50001 13.9667 6.50001 13.18V10.4867C6.50001 9.7 6.30001 9.5 5.51334 9.5H2.82001Z" fill="white"/>
</g>
</g>
</svg>
