<svg width="17" height="16" viewBox="0 0 17 16" fill="none" xmlns="http://www.w3.org/2000/svg">
<g id="Group">
<g id="Clip path group">
<mask id="mask0_2036_785" style="mask-type:luminance" maskUnits="userSpaceOnUse" x="0" y="0" width="17" height="16">
<g id="SVGID_2_">
<path id="Vector" d="M16.5 0H0.5V16H16.5V0Z" fill="white"/>
</g>
</mask>
<g mask="url(#mask0_2036_785)">
<g id="Group_2">
<g id="Group_3">
<path id="Vector_2" d="M13.8602 5.03999H3.14023C2.90023 5.03999 2.74023 4.87999 2.74023 4.63999C2.74023 4.39999 2.90023 4.23999 3.14023 4.23999H13.7802C14.0202 4.23999 14.1802 4.39999 14.1802 4.63999C14.1802 4.87999 14.0202 5.03999 13.8602 5.03999Z" fill="#000"/>
</g>
<g id="Group_4">
<path id="Vector_3" d="M7.14023 11.7602C6.90023 11.7602 6.74023 11.6002 6.74023 11.3602V7.36021C6.74023 7.12021 6.90023 6.96021 7.14023 6.96021C7.38023 6.96021 7.54023 7.12021 7.54023 7.36021V11.3602C7.54023 11.5202 7.38023 11.7602 7.14023 11.7602Z" fill="#000"/>
</g>
<g id="Group_5">
<path id="Vector_4" d="M9.86045 11.7602C9.62045 11.7602 9.46045 11.6002 9.46045 11.3602V7.36021C9.46045 7.12021 9.62045 6.96021 9.86045 6.96021C10.1004 6.96021 10.2604 7.12021 10.2604 7.36021V11.3602C10.2604 11.5202 10.0204 11.7602 9.86045 11.7602Z" fill="#000"/>
</g>
<g id="Group_6">
<path id="Vector_5" d="M11.14 14.4001H5.86004C5.38004 14.4001 4.98004 14.2401 4.66004 13.9201C4.34004 13.6001 4.18004 13.1201 4.18004 12.7201L3.54004 4.72007C3.54004 4.48007 3.70004 4.32007 3.94004 4.32007C4.18004 4.32007 4.34004 4.48007 4.34004 4.72007L4.98004 12.7201C4.98004 12.9601 5.06004 13.2001 5.22004 13.4401C5.38004 13.6001 5.62004 13.6801 5.86004 13.6801H11.22C11.46 13.6801 11.7 13.6001 11.86 13.4401C12.02 13.2801 12.1 13.0401 12.1 12.8001L12.74 4.80007C12.74 4.56007 12.98 4.40007 13.14 4.40007C13.38 4.40007 13.54 4.64007 13.54 4.80007L12.9 12.8001C12.9 13.2001 12.74 13.6801 12.42 14.0001C12.1 14.2401 11.62 14.4001 11.14 14.4001Z" fill="#000"/>
</g>
<g id="Group_7">
<path id="Vector_6" d="M10.5001 5.0401C10.2601 5.0401 10.1001 4.8801 10.1001 4.6401V2.6401C10.1001 2.5601 10.1001 2.4801 10.0201 2.4801C9.9401 2.4001 9.9401 2.4001 9.8601 2.4001H7.1401C7.0601 2.4001 6.9801 2.4001 6.9801 2.4801C6.9801 2.5601 6.9001 2.5601 6.9001 2.6401V4.6401C6.9001 4.8801 6.7401 5.0401 6.5001 5.0401C6.2601 5.0401 6.1001 4.8801 6.1001 4.6401V2.6401C6.1001 2.3201 6.1801 2.0801 6.4201 1.9201C6.6601 1.7601 6.9001 1.6001 7.1401 1.6001H9.7801C10.1001 1.6001 10.3401 1.6801 10.5001 1.9201C10.8201 2.0801 10.9001 2.4001 10.9001 2.6401V4.6401C10.9001 4.8801 10.7401 5.0401 10.5001 5.0401Z" fill="#000"/>
</g>
</g>
</g>
</g>
</g>
</svg>
