<svg width="21" height="21" viewBox="0 0 21 21" fill="none" xmlns="http://www.w3.org/2000/svg">
<g id="color-swatch">
<path id="Vector" d="M5.27909 19.038C5.02909 19.038 4.76242 19.013 4.49576 18.963C4.35409 18.9296 4.22909 18.8963 4.10409 18.863C3.96242 18.8213 3.82908 18.7713 3.70408 18.7213C3.67075 18.713 3.64577 18.6963 3.62077 18.688C3.3291 18.538 3.07909 18.388 2.85409 18.2213C2.83742 18.213 2.8291 18.1963 2.81243 18.188C2.68743 18.088 2.57076 17.988 2.46242 17.8713C2.34576 17.7463 2.26242 17.6463 2.17075 17.5463C1.97908 17.2963 1.82075 17.0463 1.67909 16.7546C1.66242 16.7296 1.65411 16.6963 1.64577 16.663C1.59577 16.5463 1.55409 16.4296 1.52075 16.3046C1.47075 16.1296 1.43741 16.013 1.41241 15.888C1.35408 15.5963 1.3291 15.338 1.3291 15.088V3.83797C1.3291 2.24631 2.44577 1.12964 4.03744 1.12964H6.53744C8.1291 1.12964 9.24577 2.24631 9.24577 3.83797V15.0796C9.24577 16.113 8.84576 17.0963 8.12076 17.838C7.98743 17.9713 7.88742 18.063 7.79575 18.138C7.52908 18.3713 7.18743 18.5796 6.82077 18.7296C6.73743 18.763 6.63743 18.8046 6.52909 18.8463C6.12076 18.9713 5.69576 19.038 5.27909 19.038ZM4.22909 17.5796C4.31242 17.613 4.39577 17.638 4.4791 17.663C4.57077 17.688 4.66242 17.713 4.75409 17.738C5.21242 17.8213 5.7041 17.7963 6.09577 17.663C6.1541 17.638 6.23742 17.613 6.31242 17.5796C6.57909 17.4713 6.79575 17.338 6.98742 17.1796C7.07075 17.113 7.1291 17.0546 7.18743 17.0046C7.71243 16.463 7.98743 15.7963 7.98743 15.088V3.83797C7.98743 2.93797 7.42909 2.37964 6.52909 2.37964H4.02909C3.12909 2.37964 2.57076 2.93797 2.57076 3.83797V15.0796C2.57076 15.2546 2.58743 15.438 2.6291 15.6296C2.64577 15.7046 2.67076 15.7963 2.69576 15.8963C2.72909 15.988 2.7541 16.063 2.78743 16.1463C2.8041 16.1713 2.81242 16.1963 2.82075 16.213C2.82908 16.2296 2.83742 16.2546 2.84575 16.2713C2.94575 16.4546 3.04577 16.613 3.1541 16.7546C3.21244 16.8213 3.28744 16.9046 3.36244 16.988C3.4541 17.088 3.52909 17.1463 3.61243 17.213C3.62076 17.2213 3.63743 17.2296 3.64577 17.238C3.7791 17.338 3.92909 17.4296 4.10409 17.5213C4.12076 17.5296 4.13742 17.5296 4.15409 17.538C4.17076 17.5463 4.19575 17.563 4.22909 17.5796Z" fill="#0F0E16"/>
<path id="Vector_2" d="M16.5293 19.038H5.2793C4.93763 19.038 4.6543 18.7546 4.6543 18.413C4.6543 18.0713 4.93763 17.788 5.2793 17.788C5.57096 17.788 5.85431 17.7463 6.09597 17.663C6.15431 17.638 6.23762 17.613 6.31262 17.5796C6.57929 17.4713 6.79595 17.338 6.98762 17.1796C7.07095 17.113 7.1293 17.0546 7.18764 17.0046L12.8876 11.313C13.0043 11.1963 13.1626 11.1296 13.3293 11.1296H16.5293C18.121 11.1296 19.2376 12.2463 19.2376 13.838V16.338C19.2376 17.9213 18.121 19.038 16.5293 19.038ZM8.16262 17.788H16.5293C17.4293 17.788 17.9876 17.2296 17.9876 16.3296V13.8296C17.9876 12.9296 17.4293 12.3713 16.5293 12.3713H13.5876L8.16262 17.788Z" fill="#0F0E16"/>
<path id="Vector_3" d="M4.2878 18.888C4.22947 18.888 4.17114 18.8797 4.11281 18.863C3.49614 18.6797 2.92948 18.338 2.47948 17.8797C2.02948 17.438 1.68781 16.8714 1.50447 16.2547C1.40447 15.9214 1.58781 15.5797 1.92114 15.4797C2.25447 15.3797 2.59614 15.563 2.70447 15.888C2.97114 16.738 3.63779 17.4047 4.48779 17.6714C4.81279 17.7714 4.99615 18.1214 4.89615 18.4547C4.80448 18.713 4.55447 18.888 4.2878 18.888Z" fill="#0F0E16"/>
<path id="Vector_4" d="M7.6626 18.0295C7.50427 18.0295 7.34594 17.9712 7.22094 17.8462C6.97927 17.6045 6.97096 17.2129 7.21262 16.9629C7.71262 16.4545 7.98762 15.7795 7.98762 15.0712V7.0212C7.98762 6.85453 8.05428 6.6962 8.17095 6.57953L10.4293 4.32119C11.5209 3.22952 13.1709 3.22952 14.2626 4.32119L16.0293 6.08787C17.1543 7.21287 17.1543 8.79619 16.0293 9.92119L8.1043 17.8379C7.9793 17.9712 7.82094 18.0295 7.6626 18.0295ZM9.23762 7.28786V14.9462L15.1459 9.04619C15.7793 8.41286 15.7793 7.62119 15.1459 6.97953L13.3793 5.21286C12.7543 4.58786 11.9376 4.58786 11.3126 5.21286L9.23762 7.28786Z" fill="#0F0E16"/>
<path id="Vector_5" d="M5.2793 16.538C4.4793 16.538 3.82097 15.8797 3.82097 15.0797C3.82097 14.2797 4.4793 13.6213 5.2793 13.6213C6.0793 13.6213 6.73764 14.2797 6.73764 15.0797C6.73764 15.8797 6.0793 16.538 5.2793 16.538ZM5.2793 14.8713C5.16264 14.8713 5.07097 14.963 5.07097 15.0797C5.07097 15.313 5.48764 15.313 5.48764 15.0797C5.48764 14.963 5.39597 14.8713 5.2793 14.8713Z" fill="#0F0E16"/>
</g>
</svg>
