<svg width="17" height="16" viewBox="0 0 17 16" fill="none" xmlns="http://www.w3.org/2000/svg">
<g id="vuesax/outline/edit-2">
<g id="edit-2">
<path id="Vector" d="M4.19137 14.0313C3.7847 14.0313 3.4047 13.8913 3.13137 13.6313C2.7847 13.3046 2.61804 12.8113 2.67804 12.2779L2.9247 10.1179C2.97137 9.71127 3.21804 9.17127 3.5047 8.87794L8.97804 3.0846C10.3447 1.63794 11.7714 1.59794 13.218 2.9646C14.6647 4.33127 14.7047 5.75794 13.338 7.2046L7.8647 12.9979C7.5847 13.2979 7.0647 13.5779 6.65804 13.6446L4.51137 14.0113C4.39804 14.0179 4.29804 14.0313 4.19137 14.0313ZM11.118 2.95794C10.6047 2.95794 10.158 3.27794 9.7047 3.75794L4.23137 9.55794C4.09804 9.69794 3.9447 10.0313 3.91804 10.2246L3.67137 12.3846C3.6447 12.6046 3.69804 12.7846 3.81804 12.8979C3.93804 13.0113 4.11804 13.0513 4.33804 13.0179L6.4847 12.6513C6.67804 12.6179 6.99804 12.4446 7.13137 12.3046L12.6047 6.51127C13.4314 5.63127 13.7314 4.81794 12.5247 3.6846C11.9914 3.17127 11.5314 2.95794 11.118 2.95794Z" fill="#13191B"/>
<path id="Vector_2" d="M12.0585 8.3178C12.0452 8.3178 12.0252 8.3178 12.0118 8.3178C9.93183 8.11114 8.2585 6.53114 7.9385 4.46447C7.8985 4.19114 8.08517 3.9378 8.3585 3.89114C8.63183 3.85114 8.88517 4.0378 8.93183 4.31114C9.18517 5.92447 10.4918 7.16447 12.1185 7.32447C12.3918 7.35114 12.5918 7.5978 12.5652 7.87114C12.5318 8.12447 12.3118 8.3178 12.0585 8.3178Z" fill="#13191B"/>
</g>
</g>
</svg>
