<svg width="21" height="21" viewBox="0 0 21 21" fill="none" xmlns="http://www.w3.org/2000/svg">
<g id="vuesax/outline/note-2">
<g id="note-2">
<path id="Vector" d="M13.4543 16.8962C13.2376 16.8962 13.0126 16.8879 12.771 16.8629C12.3376 16.8295 11.846 16.7462 11.3376 16.6212L9.93763 16.2879C6.09596 15.3795 4.83763 13.3462 5.73763 9.51285L6.5543 6.02119C6.73763 5.22952 6.9543 4.58785 7.22096 4.05452C8.6543 1.09619 11.396 1.36285 13.346 1.82119L14.7376 2.14619C16.6876 2.60452 17.921 3.32952 18.6126 4.43785C19.296 5.54619 19.4043 6.97119 18.946 8.92119L18.1293 12.4045C17.4126 15.4545 15.921 16.8962 13.4543 16.8962ZM11.2126 2.78785C9.82096 2.78785 8.93763 3.36285 8.34596 4.59619C8.1293 5.04619 7.93763 5.60452 7.77096 6.30452L6.9543 9.79619C6.21263 12.9462 7.07096 14.3212 10.221 15.0712L11.621 15.4045C12.071 15.5129 12.496 15.5795 12.8793 15.6129C15.146 15.8379 16.271 14.8462 16.9043 12.1212L17.721 8.63786C18.096 7.02952 18.046 5.90452 17.546 5.09619C17.046 4.28785 16.0626 3.73785 14.446 3.36285L13.0543 3.03785C12.3626 2.87119 11.746 2.78785 11.2126 2.78785Z" fill="#74777C"/>
<path id="Vector_2" d="M7.22097 18.6215C5.0793 18.6215 3.71263 17.3381 2.83763 14.6298L1.77097 11.3381C0.587632 7.67148 1.64597 5.60481 5.29597 4.42148L6.61263 3.99648C7.04597 3.86315 7.37097 3.77148 7.66263 3.72148C7.9043 3.67148 8.13763 3.76315 8.2793 3.95482C8.42097 4.14648 8.44597 4.39648 8.34597 4.61315C8.1293 5.05481 7.93763 5.61315 7.7793 6.31315L6.96263 9.80481C6.22097 12.9548 7.0793 14.3298 10.2293 15.0798L11.6293 15.4131C12.0793 15.5215 12.5043 15.5881 12.8876 15.6215C13.1543 15.6465 13.371 15.8298 13.446 16.0881C13.5126 16.3465 13.4126 16.6131 13.196 16.7631C12.646 17.1381 11.9543 17.4548 11.0793 17.7381L9.76263 18.1715C8.8043 18.4715 7.97097 18.6215 7.22097 18.6215ZM6.76263 5.26315L5.68763 5.61315C2.71263 6.57148 2.0043 7.97148 2.96263 10.9548L4.0293 14.2465C4.99597 17.2215 6.39597 17.9381 9.37097 16.9798L10.6876 16.5465C10.7376 16.5298 10.7793 16.5131 10.8293 16.4965L9.94597 16.2881C6.1043 15.3798 4.84597 13.3465 5.74597 9.51315L6.56263 6.02148C6.62097 5.75481 6.68763 5.49648 6.76263 5.26315Z" fill="#74777C"/>
<path id="Vector_3" d="M14.8543 8.83774C14.8043 8.83774 14.7543 8.8294 14.696 8.82107L10.6543 7.79607C10.321 7.71274 10.121 7.37107 10.2043 7.03774C10.2876 6.7044 10.6293 6.5044 10.9626 6.58774L15.0043 7.61274C15.3376 7.69607 15.5376 8.03774 15.4543 8.37107C15.3876 8.64607 15.1293 8.83774 14.8543 8.83774Z" fill="#74777C"/>
<path id="Vector_4" d="M12.4126 11.6545C12.3626 11.6545 12.3126 11.6462 12.2543 11.6378L9.8293 11.0212C9.49597 10.9378 9.29597 10.5962 9.3793 10.2628C9.46264 9.9295 9.8043 9.7295 10.1376 9.81283L12.5626 10.4295C12.896 10.5128 13.096 10.8545 13.0126 11.1878C12.946 11.4712 12.696 11.6545 12.4126 11.6545Z" fill="#74777C"/>
</g>
</g>
</svg>
