<svg width="21" height="21" viewBox="0 0 21 21" fill="none" xmlns="http://www.w3.org/2000/svg">
<g id="vuesax/outline/programming-arrows">
<g id="programming-arrows">
<path id="Vector" d="M16.1126 14.0379C15.771 14.0379 15.4876 13.7546 15.4876 13.4129V5.49626C15.4876 4.92126 15.021 4.45459 14.446 4.45459H9.86263C9.52096 4.45459 9.23763 4.17126 9.23763 3.82959C9.23763 3.48792 9.52096 3.20459 9.86263 3.20459H14.446C15.7126 3.20459 16.7376 4.22959 16.7376 5.49626V13.4129C16.7376 13.7546 16.4543 14.0379 16.1126 14.0379Z" fill="#74777C"/>
<path id="Vector_2" d="M11.946 6.53787C11.8043 6.53787 11.6626 6.48788 11.546 6.39621L9.04596 4.31288C8.90429 4.19621 8.82097 4.0212 8.82097 3.82953C8.82097 3.63787 8.90429 3.47119 9.04596 3.34619L11.546 1.26285C11.8126 1.03785 12.2043 1.07955 12.4293 1.34622C12.6543 1.61288 12.6126 2.00455 12.346 2.22955L10.421 3.82953L12.346 5.42952C12.6126 5.65452 12.646 6.04618 12.4293 6.31285C12.3043 6.46285 12.121 6.53787 11.946 6.53787Z" fill="#74777C"/>
<path id="Vector_3" d="M16.1126 19.0378C14.3876 19.0378 12.9876 17.6378 12.9876 15.9128C12.9876 14.1878 14.3876 12.7878 16.1126 12.7878C17.8376 12.7878 19.2376 14.1878 19.2376 15.9128C19.2376 17.6378 17.8376 19.0378 16.1126 19.0378ZM16.1126 14.0378C15.0793 14.0378 14.2376 14.8795 14.2376 15.9128C14.2376 16.9462 15.0793 17.7878 16.1126 17.7878C17.146 17.7878 17.9876 16.9462 17.9876 15.9128C17.9876 14.8795 17.146 14.0378 16.1126 14.0378Z" fill="#74777C"/>
<path id="Vector_4" d="M10.696 16.9547H6.11264C4.84597 16.9547 3.82097 15.9297 3.82097 14.663V6.74634C3.82097 6.40467 4.1043 6.12134 4.44597 6.12134C4.78764 6.12134 5.07097 6.40467 5.07097 6.74634V14.663C5.07097 15.238 5.53764 15.7047 6.11264 15.7047H10.696C11.0376 15.7047 11.321 15.988 11.321 16.3297C11.321 16.6713 11.0376 16.9547 10.696 16.9547Z" fill="#74777C"/>
<path id="Vector_5" d="M8.61257 19.0378C8.43757 19.0378 8.25425 18.9628 8.12925 18.8128C7.90425 18.5461 7.9459 18.1545 8.21256 17.9295L10.1376 16.3295L8.21256 14.7295C7.9459 14.5045 7.91258 14.1128 8.12925 13.8462C8.35425 13.5795 8.74592 13.5461 9.01258 13.7628L11.5126 15.8461C11.6542 15.9628 11.7376 16.1378 11.7376 16.3295C11.7376 16.5212 11.6542 16.6878 11.5126 16.8128L9.01258 18.8962C8.89592 18.9878 8.75424 19.0378 8.61257 19.0378Z" fill="#74777C"/>
<path id="Vector_6" d="M4.44597 7.37134C2.72097 7.37134 1.32097 5.97134 1.32097 4.24634C1.32097 2.52134 2.72097 1.12134 4.44597 1.12134C6.17097 1.12134 7.57097 2.52134 7.57097 4.24634C7.57097 5.97134 6.17097 7.37134 4.44597 7.37134ZM4.44597 2.37134C3.41264 2.37134 2.57097 3.213 2.57097 4.24634C2.57097 5.27967 3.41264 6.12134 4.44597 6.12134C5.4793 6.12134 6.32097 5.27967 6.32097 4.24634C6.32097 3.213 5.4793 2.37134 4.44597 2.37134Z" fill="#74777C"/>
</g>
</g>
</svg>
