<svg width="120" height="28" viewBox="0 0 120 28" fill="none" xmlns="http://www.w3.org/2000/svg">
<g id="text_logo_black_SVG 1">
<g id="Group">
<g id="Group_2">
<path id="Vector" d="M21.0175 24.641H10.5565C7.60537 24.641 5.20605 22.2416 5.20605 19.2905V8.82947C5.20605 5.87832 7.60537 3.479 10.5565 3.479H21.0175C23.9687 3.479 26.368 5.87832 26.368 8.82947V19.2905C26.368 22.2416 23.9687 24.641 21.0175 24.641Z" fill="#1D1D1F"/>
<g id="Group_3">
<path id="Vector_2" d="M21.1131 13.9877C21.1131 14.8035 20.7772 15.5233 20.2493 16.0511C19.7215 16.579 19.0017 16.9149 18.1859 16.9149H17.3701V11.0605H18.1859C19.8174 11.0605 21.1131 12.3802 21.1131 13.9877Z" fill="#EAEAEB"/>
<path id="Vector_3" d="M21.1135 7.38965V13.9878C21.1135 12.3802 19.7939 11.0606 18.1863 11.0606H15.955C15.1392 11.0606 14.4194 11.3965 13.8916 11.9244C13.3637 12.4522 13.0278 13.172 13.0278 13.9878C13.0278 15.5953 14.3474 16.9149 15.955 16.9149H17.3466V20.7298H15.883C12.2121 20.7298 9.21291 17.7547 9.21291 14.0597C9.21291 12.2123 9.9567 10.5567 11.1564 9.35709C12.356 8.15743 14.0355 7.41364 15.859 7.41364H19.7939C20.2738 7.38965 20.7056 7.38965 21.1135 7.38965Z" fill="white"/>
</g>
</g>
<g id="Group_4">
<path id="Vector_4" d="M43.9314 16.3872V22.6734H40.8843V21.4497C40.2845 22.2415 38.9889 22.8893 37.1174 22.8893C33.4464 22.8893 30.7832 20.2501 30.7832 16.3152C30.7832 12.4043 33.4225 9.78906 37.3333 9.78906C41.2922 9.81306 43.9314 12.4523 43.9314 16.3872ZM37.3813 12.6203C35.2459 12.6203 33.8543 14.0119 33.8543 16.3872C33.8543 18.7385 35.2459 20.1541 37.3813 20.1541C39.4927 20.1541 40.8843 18.7625 40.8843 16.3872C40.8843 14.0119 39.4927 12.6203 37.3813 12.6203Z" fill="#1D1D1F"/>
<path id="Vector_5" d="M45.8029 4.91846H53.2888C56.1919 4.91846 58.0154 6.88589 58.0154 9.62111C58.0154 11.3486 57.2956 12.4043 56.2159 13.0041C57.9194 13.556 58.9272 15.0196 58.9272 17.4909C58.9272 20.538 57.2476 22.6974 54.0086 22.6974H45.8269V4.91846H45.8029ZM54.8243 9.81306C54.8243 8.58941 53.6727 7.82163 52.521 7.82163H48.97V11.7565H52.521C53.6967 11.7805 54.8243 10.9887 54.8243 9.81306ZM56.096 17.2509C56.096 15.6914 55.0883 14.6837 53.5767 14.6837H48.97V19.7702H53.5767C55.0883 19.7702 56.096 18.7625 56.096 17.2509Z" fill="#1D1D1F"/>
<path id="Vector_6" d="M60.415 4.91846H63.4622V22.6974H60.415V4.91846Z" fill="#1D1D1F"/>
<path id="Vector_7" d="M71.2117 9.81299C75.1465 9.81299 77.7618 12.4282 77.7618 16.3391C77.7618 20.274 75.1465 22.9132 71.2117 22.9132C67.2768 22.9132 64.6375 20.274 64.6375 16.3391C64.6375 12.4282 67.2768 9.81299 71.2117 9.81299ZM71.1877 20.13C73.3231 20.13 74.7147 18.7384 74.7147 16.3631C74.7147 14.0118 73.3231 12.5962 71.1877 12.5962C69.0763 12.5962 67.6847 13.9878 67.6847 16.3631C67.6847 18.7384 69.0763 20.13 71.1877 20.13Z" fill="#1D1D1F"/>
<path id="Vector_8" d="M85.3681 20.13C86.9276 20.13 88.0553 19.3863 88.5832 18.0906H91.7502C91.0544 21.0418 88.7031 22.9132 85.3681 22.9132C81.4332 22.9132 78.7939 20.274 78.7939 16.3391C78.7939 12.4282 81.4332 9.81299 85.3681 9.81299C88.6791 9.81299 91.0544 11.6605 91.7262 14.5636H88.5592C88.0313 13.316 86.8796 12.6202 85.3681 12.6202C83.2567 12.6202 81.8651 14.0118 81.8651 16.3871C81.8651 18.7384 83.2567 20.13 85.3681 20.13Z" fill="#1D1D1F"/>
<path id="Vector_9" d="M92.9015 4.91846H95.9486V17.8028L101.683 10.005H105.306L100.603 16.3632L105.21 22.7214H101.611L98.8278 18.8345L95.9486 22.7214H92.9015V4.91846Z" fill="#1D1D1F"/>
<path id="Vector_10" d="M115.719 18.8584C115.719 21.4497 113.656 22.8413 110.777 22.8413C108.09 22.8413 106.362 21.6176 105.57 20.9218L107.202 18.5465C108.258 19.5542 109.625 20.0821 110.849 20.0821C111.881 20.0821 112.672 19.7222 112.672 18.9784C112.672 16.795 105.762 18.1386 105.762 13.4839C105.762 11.1566 107.514 9.81299 110.393 9.81299C112.912 9.81299 114.568 10.8207 115.671 11.7324L114.04 14.0838C112.696 12.9561 111.377 12.5962 110.321 12.5962C109.337 12.5962 108.785 12.9321 108.785 13.436C108.809 15.2834 115.719 14.1078 115.719 18.8584Z" fill="#1D1D1F"/>
</g>
</g>
</g>
</svg>
