<svg width="24" height="24" viewBox="0 0 24 24" fill="none" xmlns="http://www.w3.org/2000/svg">
<path d="M0.5 4C0.5 2.067 2.067 0.5 4 0.5H20C21.933 0.5 23.5 2.067 23.5 4V20C23.5 21.933 21.933 23.5 20 23.5H4C2.067 23.5 0.5 21.933 0.5 20V4Z" fill="white"/>
<path d="M0.5 4C0.5 2.067 2.067 0.5 4 0.5H20C21.933 0.5 23.5 2.067 23.5 4V20C23.5 21.933 21.933 23.5 20 23.5H4C2.067 23.5 0.5 21.933 0.5 20V4Z" stroke="#DDDDDF"/>
<path d="M12 13.04C11.44 13.04 10.96 12.56 10.96 12C10.96 11.44 11.44 11.04 12 11.04C12.56 11.04 13.04 11.52 13.04 12.08C13.04 12.64 12.56 13.04 12 13.04Z" fill="#0F0E16"/>
<path d="M16 13.04C15.44 13.04 14.96 12.56 14.96 12C14.96 11.44 15.44 10.96 15.92 10.96C16.48 10.96 16.96 11.44 16.96 12C16.96 12.56 16.56 13.04 16 13.04Z" fill="#0F0E16"/>
<path d="M7.99996 13.04C7.43996 13.04 6.95996 12.56 6.95996 12C6.95996 11.44 7.43996 11.04 7.99996 11.04C8.55996 11.04 9.03996 11.52 9.03996 12.08C9.03996 12.64 8.55996 13.04 7.99996 13.04Z" fill="#0F0E16"/>
</svg>
